<svg height="512" viewBox="0 0 512 512" width="512" xmlns="http://www.w3.org/2000/svg"><g id="Flat"><path d="m224 88h-184l56 232h184z" fill="#8fd0d9"/><path d="m24 320h464v32h-464z" fill="#4aafdb"/><path d="m488 320v-32h-384l-45.14-188.083a15.545 15.545 0 0 0 -15.116-11.917 15.545 15.545 0 0 0 -15.111 19.193l46.933 194.438a24 24 0 0 0 23.334 18.369z" fill="#92d8e0"/><path d="m271.474 264.073-22.839-97.064a19.467 19.467 0 0 0 -18.95-15.009h-133.685v.017a19.463 19.463 0 0 0 -18.373 23.91l22.838 97.064a19.469 19.469 0 0 0 18.954 15.009h136.581l-.057-.3a19.477 19.477 0 0 0 15.531-23.627z" fill="#4db7e5"/><path d="m96.581 152a19.469 19.469 0 0 1 18.951 15.009l22.838 97.064a19.469 19.469 0 0 1 -18.951 23.927 19.469 19.469 0 0 1 -18.951-15.009l-22.838-97.064a19.469 19.469 0 0 1 18.951-23.927z" fill="#79c6e8"/><path d="m224 152h-80v-96h80l16 48h-16z" fill="#fec9a3"/><path d="m184 80h16v16h-16z" fill="#7a432a"/><path d="m224 24h-56a24 24 0 0 0 -24 24v40l24-32h56a16 16 0 0 0 16-16 16 16 0 0 0 -16-16z" fill="#7a432a"/><path d="m260.6 171.54a25.345 25.345 0 0 0 -24.673-19.54h-91.927a25.345 25.345 0 0 0 -24.671 31.149l20.071 85.311a25.345 25.345 0 0 0 24.673 19.54h123.927z" fill="#8fd0d9"/><path d="m264 192h24a24 24 0 0 1 24 24v16a0 0 0 0 1 0 0h-48a0 0 0 0 1 0 0v-40a0 0 0 0 1 0 0z" fill="#fec9a3"/><path d="m168 152 40 32 16-32z" fill="#fec9a3"/><path d="m200 112h24v16h-24z" fill="#feb784"/><path d="m264 240h-96a8.005 8.005 0 0 1 -4.438-1.344l-24-16 8.876-13.312 21.984 14.656h85.578v-24h-80a8.005 8.005 0 0 1 -4.438-1.344l-24-16 8.876-13.312 21.984 14.656h85.578a8 8 0 0 1 8 8v40a8 8 0 0 1 -8 8z" fill="#76bbc4"/><path d="m168 264v56h288v-88h-256a32 32 0 0 0 -32 32z" fill="#a0dde5"/><path d="m224 280h88v16h-88z" fill="#b7e7eb"/><path d="m192 280h16v16h-16z" fill="#b7e7eb"/><path d="m328 192a16 16 0 0 1 16 16v112a0 0 0 0 1 0 0h-32a0 0 0 0 1 0 0v-112a16 16 0 0 1 16-16z" fill="#4db7e5"/><path d="m488 320h-144v-112a16 16 0 0 0 -16-16h144a16 16 0 0 1 16 16z" fill="#4aafdb"/><path d="m376 240h80v48h-80z" fill="#8fd0d9"/><path d="m408 216h16v24h-16z" fill="#76bbc4"/><path d="m56 352h32v72h-32z" fill="#4aafdb"/><circle cx="96" cy="464" fill="#34507b" r="24"/><path d="m424 352h32v72h-32z" fill="#4aafdb"/><circle cx="464" cy="464" fill="#34507b" r="24"/><path d="m312 352h32v72h-32z" fill="#4aafdb"/><path d="m56 352h32v16h-32z" fill="#2d97c4"/><path d="m424 352h32v16h-32z" fill="#2d97c4"/><path d="m312 352h32v16h-32z" fill="#2d97c4"/><circle cx="352" cy="464" fill="#34507b" r="24"/><path d="m344 392h80v32h-80z" fill="#3ba6d4"/><path d="m88 392h224v32h-224z" fill="#3ba6d4"/><path d="m490.343 18.343-10.343 10.344-10.343-10.344a8 8 0 0 0 -5.657-2.343h-96a8 8 0 0 0 -5.657 2.343l-10.343 10.344-10.343-10.344-11.314 11.314 16 16a8 8 0 0 0 11.314 0l13.656-13.657h36.687v160h16v-160h36.687l13.656 13.657a8 8 0 0 0 11.314 0l16-16z" fill="#e0e0de"/><path d="m320 56h64v80h-64z" fill="#348fd9"/><path d="m344 32h16v24h-16z" fill="#3086cd"/><path d="m368 88h-8v-8h-16v8h-8v16h8v8h16v-8h8z" fill="#8fd0d9"/><g fill="#e0e0de"><path d="m360 136h16v24h-16z"/><path d="m328 136h16v56h-16z"/><path d="m56 424h48v40h-16l-32-24z"/><path d="m424 424h48v40h-16l-32-24z"/><path d="m312 424h48v40h-16l-32-24z"/></g><path d="m376 288h80v24h-80z" fill="#3ba6d4"/></g></svg>