<svg id="Capa_1" enable-background="new 0 0 512 512" height="512" viewBox="0 0 512 512" width="512" xmlns="http://www.w3.org/2000/svg"><g><g><path d="m417.517 230.279c0 45.911 7.093 88.52-17.023 123.75-27.082 39.573-66.787 69.815-113.325 84.919-21.353 6.938-44.136 1.091-67.811 1.091-23.666 0-46.458 5.847-67.811-1.091-28.971-9.401-55.294-24.681-77.583-44.41-45.363-40.191-38.64-98.883-38.64-164.258 0-71.342-1.268-134.722 51.475-174.78 36.819-27.974 82.756-44.578 132.559-44.578 64.36 0 122.249 27.718 162.387 71.872 35.389 38.962 35.772 90.699 35.772 147.485z" fill="#9dc6fb"/><path d="m271.024 443.511c-16.569 4.008-33.87-.537-51.666-.537-23.667 0-46.459 2.915-67.814-4.02-28.971-9.408-55.298-24.681-77.58-44.419-45.368-40.188-38.641-98.884-38.641-164.257 0-71.339-1.27-134.725 51.47-174.787 36.822-27.97 82.754-44.571 132.564-44.571 17.796 0 35.097 2.119 51.666 6.126-96.218 23.216-167.701 109.882-167.701 213.232s71.485 190.017 167.702 213.233z" fill="#80b4fb"/><path d="m57.783 191.112c9.357 0 17.831 3.796 23.966 9.931s9.931 14.618 9.931 23.975c0 18.723-15.174 33.906-33.897 33.906h78.369c9.366 0 17.84 3.796 23.975 9.931s9.931 14.609 9.931 23.975c0 18.723-15.174 33.906-33.906 33.906h-27.294c7.547 0 14.521 2.472 20.153 6.638 1.351.997 2.631 2.101 3.822 3.293 4.917 4.908 8.324 11.317 9.489 18.493.291 1.774.441 3.61.441 5.473 0 18.732-15.183 33.906-33.906 33.906h-34.893c-45.364-40.193-73.964-98.885-73.964-164.26 0-71.342 34.056-134.722 86.799-174.78h44.516c9.357 0 17.84 3.796 23.975 9.931 3.805 3.805 6.709 8.51 8.359 13.771 1.024 3.213 1.571 6.647 1.571 10.204 0 18.723-15.183 33.897-33.906 33.897h23.331c9.366 0 17.84 3.796 23.975 9.931s9.931 14.618 9.931 23.975c0 18.732-15.174 33.906-33.906 33.906h-96.862z" fill="#c0e3a0"/><path d="m142.322 355.158c.291 1.774.441 3.61.441 5.473 0 18.732-15.183 33.906-33.906 33.906h-34.893c-45.364-40.191-73.964-98.883-73.964-164.258 0-71.342 34.056-134.722 86.799-174.78h44.516c9.357 0 17.84 3.796 23.975 9.931 3.805 3.805 6.709 8.51 8.359 13.771-28.848 30.357-49.097 68.959-56.839 111.912h-49.027c9.357 0 17.831 3.796 23.966 9.931s9.931 14.618 9.931 23.975c0 18.723-15.174 33.906-33.897 33.906h47.394c3.134 24.046 10.169 46.864 20.435 67.811h-16.754c7.547 0 14.521 2.472 20.153 6.638 4.016 7.537 8.465 14.811 13.311 21.784z" fill="#a8d4a4"/><path d="m438.717 230.279c0 45.911-14.106 88.52-38.222 123.75h-42.415c-9.366 0-17.84-3.796-23.975-9.931s-9.931-14.609-9.931-23.975c0-18.723 15.174-33.906 33.906-33.906h43.589c-9.366 0-17.84-3.796-23.975-9.931-6.135-6.126-9.931-14.6-9.931-23.966 0-18.731 15.183-33.906 33.906-33.906h-62.091c-9.366 0-17.84-3.796-23.966-9.931-6.135-6.135-9.931-14.609-9.931-23.975 0-18.723 15.174-33.906 33.897-33.906h-24.213c-9.357 0-17.84-3.796-23.975-9.931s-9.931-14.609-9.931-23.975c0-18.723 15.183-33.906 33.906-33.906h66.381c35.388 38.966 56.971 90.703 56.971 147.489z" fill="#c0e3a0"/><path d="m287.17 431.038v7.909c-5.296 1.721-10.681 3.248-16.145 4.564-.044.009-.088.018-.132.035-16.525 3.981-33.773 6.091-51.534 6.091-23.666 0-46.458-3.752-67.811-10.69v-7.909c0-9.366 3.796-17.84 9.931-23.975 5.076-5.076 11.749-8.545 19.199-9.595 1.562-.221 3.151-.335 4.776-.335 16.083 0 29.554 11.193 33.032 26.217.574 2.472.874 5.049.874 7.689 0-2.348.238-4.643.689-6.85 3.169-15.448 16.842-27.056 33.217-27.056 18.721-.001 33.904 15.173 33.904 33.905z" fill="#f6f9f9"/><path d="m271.024 443.511c-.044.009-.088.018-.132.035-16.525 3.981-33.773 6.091-51.534 6.091-23.666 0-46.458-3.752-67.811-10.69v-7.909c0-9.366 3.796-17.84 9.931-23.975 5.076-5.076 11.749-8.545 19.199-9.595 11.626 9.878 24.284 18.573 37.807 25.882.574 2.472.874 5.049.874 7.689 0-2.348.238-4.643.689-6.85 15.933 8.447 33.023 14.988 50.977 19.322z" fill="#dae7ef"/></g><g><path d="m504.013 494.722c-10.649 10.649-27.915 10.649-38.564 0l-76.807-76.807 38.564-38.564 76.807 76.807c10.649 10.649 10.649 27.915 0 38.564z" fill="#b46e59"/><path d="m510.335 484.805c-1.308 3.628-3.42 7.018-6.319 9.917-10.653 10.653-27.914 10.653-38.567 0l-76.807-76.807 16.243-16.243 76.807 76.807c7.746 7.746 18.993 9.865 28.643 6.326z" fill="#a55e4d"/><circle cx="353.547" cy="344.255" fill="#f6de81" r="106.979"/><path d="m364.568 450.669c-3.616.378-7.296.568-11.018.568-59.084 0-106.982-47.898-106.982-106.982 0-59.073 47.898-106.971 106.982-106.971 3.722 0 7.401.189 11.018.568-53.911 5.509-95.974 51.052-95.974 106.403-.001 55.362 42.062 100.905 95.974 106.414z" fill="#f2ce6b"/><circle cx="353.547" cy="344.255" fill="#dee8fd" r="69.585"/><path d="m363.504 413.127c-3.249.473-6.581.715-9.966.715-38.426 0-69.576-31.15-69.576-69.586 0-38.426 31.15-69.576 69.576-69.576 3.385 0 6.718.242 9.966.715-33.716 4.826-59.62 33.821-59.62 68.861 0 35.05 25.905 64.045 59.62 68.871z" fill="#c9dbfd"/><path d="m353.546 421.531c-19.798 0-39.596-7.536-54.668-22.608-14.602-14.602-22.644-34.017-22.644-54.668s8.042-40.065 22.644-54.668c30.144-30.143 79.19-30.145 109.336 0 14.602 14.602 22.644 34.017 22.644 54.668 0 20.65-8.042 40.065-22.644 54.668-15.072 15.072-34.87 22.608-54.668 22.608zm0-139.105c-15.841 0-31.681 6.03-43.74 18.089-11.684 11.684-18.119 27.218-18.119 43.741s6.435 32.057 18.119 43.741c12.057 12.058 27.901 18.087 43.74 18.089 15.843.001 31.68-6.028 43.74-18.089 11.684-11.684 18.119-27.218 18.119-43.741s-6.435-32.057-18.119-43.741c-12.059-12.06-27.899-18.089-43.74-18.089z" fill="#f2ce6b"/><path d="m451.517 388.01-54.216 54.216c-7.328 7.328-7.328 19.209 0 26.538 7.328 7.328 19.209 7.328 26.538 0l54.216-54.216c7.328-7.328 7.328-19.209 0-26.538-7.328-7.328-19.21-7.328-26.538 0z" fill="#e28086"/><path d="m438.009 446.819c4.802 0 9.605-1.829 13.27-5.494l-27.439 27.439c-3.665 3.665-8.467 5.494-13.27 5.494-4.802 0-9.605-1.829-13.27-5.494-7.33-7.33-7.33-19.209 0-26.539l27.439-27.439c-7.33 7.33-7.33 19.209 0 26.539 3.666 3.665 8.468 5.494 13.27 5.494z" fill="#dd636e"/></g><g><path d="m157.335 236.746c-.475 21.356-11.046 40.223-27.131 52.014-13.38 9.809-21.126 25.54-21.126 42.131 0 10.117-8.28 18.639-18.395 18.446-9.802-.187-17.685-8.186-17.685-18.033v-.41c0-16.642-7.842-32.349-21.243-42.216-16.398-12.073-27.037-31.515-27.037-53.436 0-36.946 30.209-66.836 67.267-66.317 36.663.513 66.165 31.163 65.35 67.821z" fill="#e28086"/><circle cx="91.037" cy="235.239" fill="#dee8fd" r="35.128"/><path d="m101.762 268.694c-3.38 1.085-6.987 1.672-10.727 1.672-19.4 0-35.127-15.727-35.127-35.127 0-19.407 15.727-35.134 35.127-35.134 3.739 0 7.346.587 10.727 1.672-14.151 4.531-24.4 17.794-24.4 33.463 0 15.66 10.25 28.923 24.4 33.454z" fill="#c9dbfd"/></g><g><path d="m484.066 77.116c-.475 21.356-11.046 40.223-27.131 52.014-13.38 9.809-21.126 25.54-21.126 42.131 0 10.117-8.28 18.639-18.395 18.446-9.802-.187-17.685-8.186-17.685-18.033v-.41c0-16.642-7.842-32.349-21.243-42.216-16.398-12.073-27.037-31.515-27.037-53.436 0-36.946 30.209-66.836 67.267-66.317 36.664.514 66.166 31.164 65.35 67.821z" fill="#e28086"/><circle cx="417.769" cy="75.609" fill="#dee8fd" r="35.128"/><path d="m428.494 109.065c-3.38 1.085-6.987 1.672-10.727 1.672-19.4 0-35.127-15.727-35.127-35.127 0-19.407 15.727-35.134 35.127-35.134 3.739 0 7.346.587 10.727 1.672-14.151 4.531-24.4 17.794-24.4 33.463-.001 15.659 10.249 28.922 24.4 33.454z" fill="#c9dbfd"/></g></g></svg>